<?xml version="1.0" encoding="UTF-8"?>
<svg version="1.1" xmlns="http://www.w3.org/2000/svg" width="500" height="500">
<path d="M0 0 C0.63711914 0.32492432 1.27423828 0.64984863 1.93066406 0.98461914 C3.2931984 1.68140718 4.65251102 2.38452555 6.00878906 3.09341431 C8.16350955 4.21934152 10.32630106 5.32809238 12.4921875 6.43237305 C14.68154394 7.54864714 16.87047132 8.66564471 19.05688477 9.78767395 C24.70293447 12.68470963 30.39027839 15.48151143 36.125 18.19921875 C37.0010791 18.61574707 37.8771582 19.03227539 38.77978516 19.46142578 C41.89351993 20.93935873 45.00928545 22.41296398 48.125 23.88671875 C72.51389237 35.43920198 96.8928185 47.00815541 121.125 58.88671875 C121.8250415 59.22954895 122.52508301 59.57237915 123.24633789 59.92559814 C127.49920599 62.00940746 131.74786675 64.10145019 135.9911499 66.20471191 C137.31623688 66.86071311 138.64226887 67.51480935 139.96929932 68.16687012 C141.7923769 69.06361111 143.61114337 69.9691007 145.4296875 70.875 C146.46077637 71.38587158 147.49186523 71.89674316 148.55419922 72.4230957 C150.94862271 73.78630262 152.40827874 74.76794402 154.125 76.88671875 C154.49543667 78.89706516 154.49543667 78.89706516 154.48838806 81.24671936 C154.4927355 82.14410639 154.49708294 83.04149342 154.50156212 83.96607399 C154.49065355 84.95445951 154.47974499 85.94284504 154.46850586 86.96118164 C154.46826227 88.0124996 154.46801868 89.06381756 154.46776772 90.14699364 C154.46176392 93.697198 154.43258202 97.24679945 154.40234375 100.796875 C154.39068377 103.34017173 154.37962624 105.88347129 154.36912537 108.42677307 C154.19982801 139.92117536 153.52242385 171.41123999 152.84539831 202.89799178 C152.70183984 209.5961193 152.56572179 216.29438319 152.43132645 222.99270004 C152.28343117 230.35744178 152.13102972 237.72208338 151.97642326 245.08668709 C151.91166735 248.17371056 151.84837424 251.26075857 151.78631783 254.34783745 C151.71365436 257.95109395 151.63699204 261.55424449 151.55731201 265.15735245 C151.51553372 267.08714163 151.47759161 269.0170127 151.43980408 270.94688416 C151.01531271 289.57824862 151.01531271 289.57824862 148.45849609 293.3359375 C145.6565154 295.19806152 142.91993304 296.45849118 139.7890625 297.69921875 C139.16701935 297.94907028 138.5449762 298.19892181 137.90408325 298.4563446 C135.85643532 299.27615203 133.8033532 300.08132039 131.75 300.88671875 C130.29550696 301.46622216 128.84141126 302.04672377 127.38769531 302.62817383 C123.67141896 304.11218663 119.95080295 305.58496042 116.22888184 307.05474854 C110.77158596 309.21281062 105.32417611 311.39575898 99.875 313.57421875 C98.07349487 314.29327393 98.07349487 314.29327393 96.2355957 315.02685547 C62.40006333 328.54579464 28.7777593 342.58308147 -4.81134033 356.70056152 C-11.14218753 359.36131145 -17.47723143 362.01082131 -23.82666016 364.62695312 C-26.09928787 365.56614574 -28.36949952 366.51035903 -30.63818359 367.45898438 C-34.03904571 368.87983537 -37.44609931 370.28494994 -40.85702515 371.68145752 C-42.18295811 372.22698995 -43.50695036 372.777268 -44.82876587 373.33270264 C-58.31626301 378.99220722 -58.31626301 378.99220722 -64.875 377.88671875 C-67.640625 376.234375 -67.640625 376.234375 -70.125 373.94921875 C-73.90686959 370.61533922 -77.69372421 367.44593965 -81.75 364.44921875 C-86.42948366 360.97114296 -91.06797034 357.44592195 -95.68505859 353.88549805 C-103.06421204 348.19636703 -110.46943694 342.54140704 -117.875 336.88671875 C-119.13787842 335.92209717 -119.13787842 335.92209717 -120.42626953 334.93798828 C-132.87916684 325.42846119 -145.37560461 315.98089638 -157.9296875 306.60546875 C-163.68932591 302.29744652 -169.41617649 297.94918701 -175.125 293.57421875 C-181.98495758 288.31747858 -188.87965165 283.10946825 -195.80078125 277.93359375 C-196.3831102 277.47686783 -196.96543915 277.02014191 -197.56541443 276.54957581 C-199.91917199 274.785369 -199.91917199 274.785369 -202.84761047 273.2444458 C-207.72410656 270.28314586 -211.24383465 268.0008893 -212.95423889 262.27166748 C-213.40243582 258.45930997 -213.3989012 254.65006604 -213.34119034 250.81582642 C-213.27477125 245.94103033 -213.4249183 241.06887534 -213.53027344 236.1953125 C-213.54829828 235.09773117 -213.56632313 234.00014984 -213.58489418 232.86930847 C-213.85496243 218.5870302 -214.91794873 204.35404094 -215.91538239 190.10800171 C-216.26046759 185.17774148 -216.59500243 180.24680171 -216.9274292 175.31567383 C-217.38143291 168.59012729 -217.83816014 161.86477532 -218.29833984 155.13964844 C-218.35594002 154.2978431 -218.41354021 153.45603777 -218.47288585 152.58872318 C-218.58977248 150.88073721 -218.70666986 149.17275197 -218.82357788 147.46476746 C-219.64209016 135.50388329 -220.4581967 123.5428411 -221.26601112 111.58122921 C-221.58843403 106.81073994 -221.9148092 102.04054393 -222.24447274 97.27054977 C-222.44803573 94.31364232 -222.64823144 91.35651349 -222.84757233 88.3993187 C-222.98317052 86.40275302 -223.12280043 84.4064624 -223.26260376 82.41018677 C-223.64658123 76.66818158 -223.97074435 70.92543235 -224.1178894 65.17211914 C-224.14469725 64.22341446 -224.17150509 63.27470978 -224.19912529 62.29725647 C-223.875 59.88671875 -223.875 59.88671875 -222.47688103 58.10694981 C-220.62590656 56.6969721 -219.08628421 56.10203781 -216.85253906 55.45483398 C-216.03263489 55.2121579 -215.21273071 54.96948181 -214.36798096 54.7194519 C-213.46795349 54.4639859 -212.56792603 54.2085199 -211.640625 53.9453125 C-210.68403992 53.66551544 -209.72745483 53.38571838 -208.74188232 53.09744263 C-205.53894983 52.16346917 -202.33208591 51.24381992 -199.125 50.32421875 C-196.86306965 49.66796522 -194.60135523 49.01096703 -192.33984375 48.35327148 C-184.85618013 46.18162058 -177.36620565 44.03216773 -169.875 41.88671875 C-168.52661001 41.50037081 -167.17822135 41.11401823 -165.82983398 40.72766113 C-153.57868644 37.21799341 -141.32633137 33.71255662 -129.06738281 30.23022461 C-115.69308791 26.42809591 -102.33595956 22.57975656 -89.0189209 18.58094788 C-81.9417484 16.46413865 -74.83427859 14.50451031 -67.6875 12.63671875 C-59.60221756 10.51120049 -51.58899451 8.22161223 -43.59375 5.78125 C-42.69613449 5.50797882 -41.79851898 5.23470764 -40.873703 4.95315552 C-36.3753857 3.5817072 -31.88124932 2.19819776 -27.3918457 0.79785156 C-25.72617067 0.2867949 -24.06040323 -0.22396069 -22.39453125 -0.734375 C-21.63825439 -0.97463913 -20.88197754 -1.21490326 -20.1027832 -1.46244812 C-12.50027597 -3.77189967 -7.21234039 -3.74019685 0 0 Z " fill="#A3A3A4" transform="translate(282.875,77.11328125)"/>
<path d="M0 0 C0.99 0.495 0.99 0.495 2 1 C2.24641733 43.02220771 1.6237594 85.00041519 0.72039545 127.01127017 C0.5768449 133.70939879 0.44072181 140.4076635 0.30632645 147.10598129 C0.15843117 154.47072303 0.00602972 161.83536463 -0.14857674 169.19996834 C-0.21333265 172.28699181 -0.27662576 175.37403982 -0.33868217 178.4611187 C-0.41134564 182.0643752 -0.48800796 185.66752574 -0.56768799 189.2706337 C-0.60946628 191.20042288 -0.64740839 193.13029395 -0.68519592 195.06016541 C-1.10968729 213.69152987 -1.10968729 213.69152987 -3.66650391 217.44921875 C-6.4684846 219.31134277 -9.20506696 220.57177243 -12.3359375 221.8125 C-12.95798065 222.06235153 -13.5800238 222.31220306 -14.22091675 222.56962585 C-16.26856468 223.38943328 -18.3216468 224.19460164 -20.375 225 C-21.82949304 225.57950341 -23.28358874 226.16000502 -24.73730469 226.74145508 C-28.45358104 228.22546788 -32.17419705 229.69824167 -35.89611816 231.16802979 C-41.35341404 233.32609187 -46.80082389 235.50904023 -52.25 237.6875 C-53.45100342 238.16687012 -54.65200684 238.64624023 -55.8894043 239.14013672 C-89.72493667 252.65907589 -123.3472407 266.69636272 -156.93634033 280.81384277 C-163.26718753 283.4745927 -169.60223143 286.12410256 -175.95166016 288.74023438 C-178.22428787 289.67942699 -180.49449952 290.62364028 -182.76318359 291.57226562 C-186.16404571 292.99311662 -189.57109931 294.39823119 -192.98202515 295.79473877 C-194.30795811 296.3402712 -195.63195036 296.89054925 -196.95376587 297.44598389 C-210.12905943 302.97448436 -210.12905943 302.97448436 -217 302 C-219 300 -219 300 -220 298 C-218.68 298.33 -217.36 298.66 -216 299 C-214.96988236 295.90964707 -214.90526793 293.90422494 -214.96240234 290.671875 C-214.97927094 289.5780249 -214.99613953 288.4841748 -215.01351929 287.35717773 C-215.0374173 286.16680908 -215.06131531 284.97644043 -215.0859375 283.75 C-215.11779648 281.88807007 -215.11779648 281.88807007 -215.15029907 279.98852539 C-215.19667165 277.34204261 -215.24504325 274.69568877 -215.296875 272.04931641 C-215.37412433 268.0993957 -215.44120681 264.14933392 -215.5078125 260.19921875 C-215.71570511 248.43040073 -215.98612619 236.67084771 -216.47265625 224.91015625 C-217.29804903 204.50937258 -217.55823077 184.0889188 -217.92993164 163.67602539 C-218.039745 157.64718017 -218.15396711 151.61842803 -218.26950932 145.58969021 C-218.35966597 140.85947401 -218.44745068 136.12921589 -218.53457451 131.39894295 C-218.57572436 129.17917628 -218.61755846 126.95942217 -218.66017342 124.73968315 C-218.77801845 118.56435916 -218.87855134 112.38917452 -218.95595169 106.21320724 C-218.98691364 103.95461486 -219.02380786 101.69609982 -219.0650444 99.43767166 C-219.1289273 95.83356834 -219.17273957 92.22968365 -219.21264648 88.62524414 C-219.23627038 87.50677062 -219.25989428 86.3882971 -219.28423405 85.23593044 C-219.29178432 84.20163434 -219.29933458 83.16733824 -219.30711365 82.10169983 C-219.32026328 81.18724626 -219.33341291 80.27279268 -219.34696102 79.3306284 C-218.92781595 76.51512077 -218.25725546 75.68267853 -216 74 C-214.515 73.505 -214.515 73.505 -213 73 C-211.87078125 72.39800781 -210.7415625 71.79601562 -209.578125 71.17578125 C-204.19643366 68.45427417 -198.52058222 66.87839507 -192.75 65.1875 C-184.98469798 62.8547804 -177.2592144 60.48326802 -169.625 57.75 C-160.53831863 54.50894494 -151.40255054 51.42381877 -142.25 48.375 C-141.11371155 47.99640839 -141.11371155 47.99640839 -139.95446777 47.61016846 C-125.65186739 42.84953719 -111.32004776 38.1793884 -96.97753906 33.54052734 C-87.0051128 30.31366622 -77.05093348 27.03640234 -67.11242676 23.70649719 C-64.08128694 22.69273813 -61.04782576 21.68596982 -58.01431274 20.67933655 C-55.07535093 19.68815771 -52.16363947 18.62549048 -49.25 17.5625 C-43.72710018 15.57992058 -38.17631462 13.79306719 -32.55859375 12.1015625 C-27.50331384 10.53670088 -22.49324029 8.84286357 -17.47973633 7.1496582 C-12.5740552 5.50000217 -7.6548974 3.97463931 -2.65234375 2.640625 C-0.78461469 2.12946286 -0.78461469 2.12946286 0 0 Z " fill="#3E3F3F" transform="translate(435,153)"/>
<path d="M0 0 C0.63711914 0.32492432 1.27423828 0.64984863 1.93066406 0.98461914 C3.2931984 1.68140718 4.65251102 2.38452555 6.00878906 3.09341431 C8.16350955 4.21934152 10.32630106 5.32809238 12.4921875 6.43237305 C14.68154394 7.54864714 16.87047132 8.66564471 19.05688477 9.78767395 C24.70293447 12.68470963 30.39027839 15.48151143 36.125 18.19921875 C37.0010791 18.61574707 37.8771582 19.03227539 38.77978516 19.46142578 C41.89351993 20.93935873 45.00928545 22.41296398 48.125 23.88671875 C94.02923052 45.63054562 94.02923052 45.63054562 115.15109253 55.9690094 C119.30327041 58.00088435 123.46311661 60.01611057 127.62765503 62.02252197 C130.45659475 63.38914688 133.27950993 64.76787743 136.10101318 66.14978027 C137.43835663 66.80189702 138.77805379 67.44921125 140.12017822 68.09143066 C141.96147779 68.97358303 143.79351602 69.87498944 145.625 70.77734375 C146.6665625 71.28297852 147.708125 71.78861328 148.78125 72.30957031 C151.125 73.88671875 151.125 73.88671875 151.96875 76.08105469 C152.04609375 76.9748584 152.04609375 76.9748584 152.125 77.88671875 C146.63380162 80.3908241 141.10825223 82.16267886 135.3125 83.82421875 C129.22810616 85.60472189 123.30938716 87.4658692 117.47265625 89.95703125 C113.49239316 91.53324192 109.37310508 92.66350791 105.2734375 93.88671875 C102.51729358 94.7621193 99.90845026 95.75621498 97.25 96.88671875 C93.33426633 98.51646083 89.43112192 99.63760781 85.3203125 100.67578125 C77.78391766 102.63295023 70.43069097 105.01124556 63.06167603 107.51809692 C59.18916975 108.8350182 55.31114709 110.13552994 51.43359375 111.4375 C50.61457077 111.7128508 49.79554779 111.9882016 48.95170593 112.27189636 C38.63618264 115.73314298 28.28654603 119.08983676 17.9375 122.44921875 C17.00989868 122.75035583 16.08229736 123.05149292 15.12658691 123.36175537 C14.22017456 123.65600403 13.31376221 123.95025269 12.37988281 124.25341797 C11.49674911 124.54017899 10.61361542 124.82694 9.70372009 125.12239075 C8.06304519 125.65496764 6.42223869 126.18713941 4.78126526 126.71879578 C2.56163574 127.43878789 0.34303066 128.16181696 -1.875 128.88671875 C-2.63378952 129.13410797 -3.39257904 129.38149719 -4.17436218 129.63638306 C-8.93893843 131.20456428 -13.6280726 132.90742488 -18.30859375 134.71484375 C-27.07525288 138.04809881 -35.98057334 140.86499708 -44.9375 143.63671875 C-46.49166078 144.12199786 -48.04569771 144.60767378 -49.59960938 145.09375 C-53.68808786 146.36940478 -57.77742309 147.64052235 -61.875 148.88671875 C-62.5238063 149.0878125 -63.17261261 149.28890625 -63.84107971 149.49609375 C-68.63588131 150.9405541 -68.63588131 150.9405541 -70.95703125 150.41796875 C-71.52808594 150.07765625 -72.09914062 149.73734375 -72.6875 149.38671875 C-73.36039063 149 -74.03328125 148.61328125 -74.7265625 148.21484375 C-75.43554688 147.7765625 -76.14453125 147.33828125 -76.875 146.88671875 C-77.62523437 146.4484375 -78.37546875 146.01015625 -79.1484375 145.55859375 C-85.05470922 142.07981882 -90.86258238 138.4337303 -96.69921875 134.83984375 C-100.93913072 132.23136741 -100.93913072 132.23136741 -105.1875 129.63671875 C-105.90550781 129.1984375 -106.62351562 128.76015625 -107.36328125 128.30859375 C-109.40409802 127.15329467 -111.44064341 126.11122519 -113.546875 125.0859375 C-118.47035215 122.64977916 -123.1258519 119.80832395 -127.8125 116.94921875 C-133.45040617 113.51988791 -139.09708529 110.15699434 -144.90600586 107.02368164 C-147.42154498 105.57112545 -149.69826786 103.89377213 -151.9765625 102.09765625 C-154.22214286 100.66529017 -156.59706235 99.72276077 -159.05078125 98.70361328 C-161.88421776 97.43478585 -164.44326043 95.79656639 -167.0625 94.13671875 C-168.19328121 93.42722189 -169.32480969 92.71891482 -170.45703125 92.01171875 C-171.02373535 91.65722656 -171.59043945 91.30273438 -172.17431641 90.9375 C-177.76955273 87.48043753 -183.50043636 84.23924798 -189.21484375 80.984375 C-193.18560044 78.71738271 -197.12448224 76.39748257 -201.0625 74.07421875 C-207.98930987 69.99320171 -214.92617062 65.9301609 -221.875 61.88671875 C-221.545 60.23671875 -221.215 58.58671875 -220.875 56.88671875 C-190.95982047 48.0198762 -161.00578363 39.30359797 -130.99192429 30.77752686 C-116.97543849 26.79532905 -102.97476264 22.77157483 -89.0189209 18.58094788 C-81.9417484 16.46413865 -74.83427859 14.50451031 -67.6875 12.63671875 C-59.60221756 10.51120049 -51.58899451 8.22161223 -43.59375 5.78125 C-42.69613449 5.50797882 -41.79851898 5.23470764 -40.873703 4.95315552 C-36.3753857 3.5817072 -31.88124932 2.19819776 -27.3918457 0.79785156 C-25.72617067 0.2867949 -24.06040323 -0.22396069 -22.39453125 -0.734375 C-21.63825439 -0.97463913 -20.88197754 -1.21490326 -20.1027832 -1.46244812 C-12.50027597 -3.77189967 -7.21234039 -3.74019685 0 0 Z " fill="#E0E0E0" transform="translate(282.875,77.11328125)"/>
<path d="M0 0 C-0.86536377 0.36013184 -1.73072754 0.72026367 -2.62231445 1.09130859 C-6.85260099 2.85199956 -11.08260136 4.61337736 -15.3125 6.375 C-16.1012149 6.70346924 -16.88992981 7.03193848 -17.70254517 7.37036133 C-27.5944913 11.49061106 -37.48330613 15.61825109 -47.3671875 19.7578125 C-48.31218613 20.1535849 -49.25718475 20.5493573 -50.2308197 20.9571228 C-55.7021595 23.24886535 -61.17289349 25.54204851 -66.64329529 27.83602905 C-69.14694636 28.88436241 -71.65224335 29.92868259 -74.15771484 30.97265625 C-77.42701671 32.3361628 -80.68600319 33.72134187 -83.93994141 35.12109375 C-85.48728519 35.77869172 -87.03464759 36.43624587 -88.58203125 37.09375 C-89.6434156 37.55811462 -89.6434156 37.55811462 -90.72624207 38.03186035 C-95.66109792 40.11296736 -95.66109792 40.11296736 -99 39 C-92.33831349 35.98887657 -85.67121273 32.98995712 -79 30 C-78.21705566 29.64856934 -77.43411133 29.29713867 -76.62744141 28.93505859 C-63.13327864 22.89276216 -63.13327864 22.89276216 -56.26782227 20.78588867 C-53.75756038 19.91598524 -51.40989789 18.84929102 -49.00390625 17.72265625 C-42.99663764 14.96335581 -36.8972672 12.49065626 -30.75 10.0625 C-28.55456886 9.19300784 -26.35925601 8.32321692 -24.1640625 7.453125 C-23.1112207 7.03611328 -22.05837891 6.61910156 -20.97363281 6.18945312 C-18.35568511 5.14227405 -15.74949156 4.07267286 -13.1484375 2.984375 C-12.10864746 2.55306274 -12.10864746 2.55306274 -11.04785156 2.11303711 C-9.26113717 1.36917773 -7.4780653 0.61658568 -5.6953125 -0.13671875 C-3 -1 -3 -1 0 0 Z " fill="#121212" transform="translate(352,403)"/>
<path d="M0 0 C-8.13785269 3.94889902 -16.34228517 7.65860368 -24.75 11 C-25.91088135 11.47191772 -25.91088135 11.47191772 -27.09521484 11.95336914 C-32.64407328 14.11864224 -32.64407328 14.11864224 -36 13 C-30.25263629 9.95727803 -24.41878257 7.5819671 -18.328125 5.30859375 C-14.22032957 3.69343945 -10.28267753 1.800623 -6.33984375 -0.1796875 C-3.72485104 -1.09646291 -2.55724731 -0.95675304 0 0 Z " fill="#141414" transform="translate(430,371)"/>
<path d="M0 0 C-2.88279652 2.88279652 -6.4634293 3.99970579 -10.18359375 5.51171875 C-10.9949025 5.8442012 -11.80621124 6.17668365 -12.6421051 6.51924133 C-14.35837593 7.22033731 -16.07577054 7.91868762 -17.79418945 8.61450195 C-20.42781656 9.6835692 -23.05473473 10.76805596 -25.68164062 11.85351562 C-27.34857041 12.53220355 -29.01587603 13.20996928 -30.68359375 13.88671875 C-31.86495155 14.37720955 -31.86495155 14.37720955 -33.07017517 14.87760925 C-38.65663629 17.11445457 -38.65663629 17.11445457 -42 16 C-36.21985826 13.27788916 -30.42309653 10.73926711 -24.4375 8.5 C-19.45602205 6.62378185 -14.73504578 4.48882802 -10.0234375 2.015625 C-6.54168175 0.26802559 -3.84353246 -0.10387926 0 0 Z " fill="#121212" transform="translate(394,385)"/>
<path d="M0 0 C0.66 0.33 1.32 0.66 2 1 C1.01 2.485 1.01 2.485 0 4 C-1.66614608 4.04165365 -3.33385392 4.04165365 -5 4 C-7.49505962 6.49505962 -7.35948376 7.67328888 -7.625 11.125 C-7.69976562 12.03507813 -7.77453125 12.94515625 -7.8515625 13.8828125 C-7.90054688 14.58148438 -7.94953125 15.28015625 -8 16 C-8.33 16 -8.66 16 -9 16 C-9 12.04 -9 8.08 -9 4 C-2.1640625 0.77734375 -2.1640625 0.77734375 0 0 Z " fill="#737276" transform="translate(224,224)"/>
<path d="M0 0 C0.66 0.33 1.32 0.66 2 1 C1.67 2.65 1.34 4.3 1 6 C-1.475 5.01 -1.475 5.01 -4 4 C-4 4.66 -4 5.32 -4 6 C-7.73567172 6.76411467 -10.34811918 7.07174763 -14 6 C-13.07316406 5.73445312 -12.14632813 5.46890625 -11.19140625 5.1953125 C-9.99386719 4.84210938 -8.79632813 4.48890625 -7.5625 4.125 C-6.36753906 3.77695313 -5.17257812 3.42890625 -3.94140625 3.0703125 C-0.88308969 2.3391709 -0.88308969 2.3391709 0 0 Z " fill="#616065" transform="translate(435,153)"/>
<path d="M0 0 C-0.804375 0.28875 -1.60875 0.5775 -2.4375 0.875 C-5.1326468 1.73262568 -5.1326468 1.73262568 -6 4 C-8.31 3.67 -10.62 3.34 -13 3 C-4.20833333 -1.55864198 -4.20833333 -1.55864198 0 0 Z M-12 4 C-11.34 4.66 -10.68 5.32 -10 6 C-10.66 6 -11.32 6 -12 6 C-12 5.34 -12 4.68 -12 4 Z " fill="#656568" transform="translate(421,161)"/>
<path d="M0 0 C3.96 1.98 3.96 1.98 8 4 C6 6 6 6 3.375 6.125 C2.59125 6.08375 1.8075 6.0425 1 6 C1 4.68 1 3.36 1 2 C0.34 1.67 -0.32 1.34 -1 1 C-0.67 0.67 -0.34 0.34 0 0 Z " fill="#BABABC" transform="translate(98,160)"/>
<path d="M0 0 C3.3125 0.625 3.3125 0.625 7 2 C8.9375 5.125 8.9375 5.125 10 8 C6.05205855 6.32971708 3.18203882 3.8204435 0 1 C0 0.67 0 0.34 0 0 Z " fill="#606061" transform="translate(189,431)"/>
<path d="M0 0 C2.91517292 1.07401108 4.77810176 1.77810176 7 4 C6.67 4.66 6.34 5.32 6 6 C4.125 5.8125 4.125 5.8125 2 5 C0.75 2.4375 0.75 2.4375 0 0 Z " fill="#B9B9BB" transform="translate(127,177)"/>
<path d="M0 0 C0.78375 0.185625 1.5675 0.37125 2.375 0.5625 C4.97089775 1.25962266 4.97089775 1.25962266 7 0 C7.33 1.98 7.66 3.96 8 6 C4.63408134 4.55746343 2.48952921 2.66735273 0 0 Z " fill="#626264" transform="translate(207,445)"/>
<path d="M0 0 C5.75 1.75 5.75 1.75 8 4 C6 5 6 5 2.875 4.0625 C1.92625 3.711875 0.9775 3.36125 0 3 C0 2.01 0 1.02 0 0 Z " fill="#BABABC" transform="translate(179,208)"/>
</svg>
