<svg xmlns="http://www.w3.org/2000/svg" id="svg0.6841155494415438" viewBox="0 0 1024 1024"><path d="M0 0 C337.92 0 675.84 0 1024 0 C1024 337.92 1024 675.84 1024 1024 C686.08 1024 348.16 1024 0 1024 C0 686.08 0 348.16 0 0 Z " transform="translate(0,0)" style="fill: #7C7C7D;"/><path d="M0 0 C0.99 0.33 1.98 0.66 3 1 C3.24949799 41.37261282 2.58771471 81.73724664 1.1335144 122.08364868 C0.20574445 147.99483222 -0.2204229 173.88621845 -0.4375 199.8125 C-0.79395804 242.28541448 -1.55689896 284.74682262 -2.39793777 327.21239853 C-2.4826239 331.490205 -2.56651439 335.76802661 -2.65012866 340.04585415 C-2.82664476 349.07640647 -3.00580255 358.10690206 -3.18795586 367.13734245 C-3.24901484 370.16446606 -3.30939405 373.19160186 -3.36912727 376.21875191 C-3.65935923 390.88079885 -3.98058253 405.54201032 -4.42096615 420.20041203 C-4.48081858 422.21031986 -4.53700293 424.22033587 -4.59308624 426.2303524 C-4.63129234 427.44087084 -4.66949844 428.65138927 -4.7088623 429.89859009 C-4.74094536 430.95965784 -4.77302841 432.02072559 -4.80608368 433.11394691 C-4.98840377 435.82741351 -5.39766747 438.35133113 -6 441 C-5.01 441.66 -4.02 442.32 -3 443 C-4.12451727 445.9719385 -5.22293791 448.33440687 -7 451 C-7.33 450.01 -7.66 449.02 -8 448 C-8.763125 448.66 -9.52625 449.32 -10.3125 450 C-13 452 -13 452 -16 452 C-14.50163895 448.88801935 -12.80066242 445.9465385 -11 443 C-12.4391134 443.28359887 -13.87625518 443.57721399 -15.3125 443.875 C-16.11300781 444.03742188 -16.91351562 444.19984375 -17.73828125 444.3671875 C-20.25301118 444.94478999 -20.25301118 444.94478999 -23 447 C-24.33035817 447.34501597 -25.66435237 447.67606437 -27 448 C-29.19682902 448.85130695 -31.38300933 449.73023654 -33.5625 450.625 C-39.53566846 453.05889878 -45.55799679 455.31163194 -51.625 457.5 C-58.30123047 459.92026686 -64.7216946 462.58731805 -71.12890625 465.65625 C-74.67386963 467.31538932 -78.29312965 468.7201998 -81.94140625 470.1328125 C-84.13127437 470.98641603 -84.13127437 470.98641603 -86.4375 472.5625 C-89.06737168 474.03779387 -91.27191157 474.64610289 -94.1875 475.375 C-98.91646767 476.58868452 -102.83962304 478.33403883 -107.13671875 480.609375 C-112.63421958 483.2793754 -118.43505803 485.22760186 -124.16992188 487.32421875 C-129.99562794 489.47543999 -135.72180529 491.87962699 -141.44921875 494.27734375 C-145.85404592 496.11453804 -150.26778408 497.92728891 -154.69140625 499.71875 C-155.82126953 500.17636719 -156.95113281 500.63398437 -158.11523438 501.10546875 C-160.41676876 502.03651439 -162.71885449 502.96619825 -165.02148438 503.89453125 C-170.21774744 506.00152541 -175.37673623 508.1426188 -180.46484375 510.5 C-188.03783374 513.989184 -195.84044479 516.89637018 -203.6171875 519.89453125 C-210.04601728 522.39150562 -216.36866747 525.01187056 -222.62695312 527.91015625 C-225.63088788 529.2897411 -228.67596245 530.53538028 -231.75 531.75 C-232.34852783 531.98750977 -232.94705566 532.22501953 -233.5637207 532.46972656 C-237.68102326 534.09931157 -241.80752667 535.70526436 -245.93359375 537.3125 C-246.96581055 537.71500977 -247.99802734 538.11751953 -249.06152344 538.53222656 C-251.11736393 539.33311163 -253.17398449 540.13199768 -255.23144531 540.92871094 C-256.65408691 541.48220215 -256.65408691 541.48220215 -258.10546875 542.046875 C-258.95262451 542.37526367 -259.79978027 542.70365234 -260.67260742 543.04199219 C-262.84358332 543.93561533 -264.90771421 544.93795268 -267 546 C-269.8989437 547.29149325 -272.82550819 548.51759378 -275.75 549.75 C-276.58821289 550.10416992 -277.42642578 550.45833984 -278.29003906 550.82324219 C-284.95233167 553.61450872 -291.67939808 556.15794492 -298.484375 558.578125 C-301.05240087 559.6167488 -303.18100027 560.62079214 -305.53515625 562.0078125 C-308.86857926 563.92443678 -312.08383513 565.30294543 -315.6875 566.625 C-319.90853134 568.15770912 -319.90853134 568.15770912 -323.9921875 570.0078125 C-327.76403168 571.87171994 -331.82901385 573.04411593 -335.80859375 574.390625 C-340.50151591 576.09811569 -344.97074667 578.28164435 -349.49145508 580.39453125 C-355.30106997 583.05294246 -361.21239423 585.45658579 -367.125 587.875 C-369.04411595 588.66391212 -370.96277602 589.45392542 -372.88139343 590.24404907 C-374.14796955 590.76563453 -375.41466128 591.28693936 -376.68147278 591.80795288 C-381.94364901 593.97300186 -387.19447903 596.16401505 -392.4375 598.375 C-393.56393921 598.84993896 -393.56393921 598.84993896 -394.71313477 599.33447266 C-400.45655272 601.76119667 -406.1834051 604.22562892 -411.91015625 606.69140625 C-414.75900003 607.89793301 -417.62145642 609.05404673 -420.5 610.1875 C-424.10717099 611.60904522 -427.54718017 613.23148253 -431 615 C-431.99 615.33 -432.98 615.66 -434 616 C-434.33 616.66 -434.66 617.32 -435 618 C-433.824375 617.835 -432.64875 617.67 -431.4375 617.5 C-425.53250139 616.78013268 -420.48618974 616.34002922 -415 619 C-416.625 620.5625 -416.625 620.5625 -419 622 C-422.25 621.6875 -422.25 621.6875 -425 621 C-425 621.66 -425 622.32 -425 623 C-427 623 -427 623 -429 621 C-431.32622311 620.62020847 -433.66175408 620.29692012 -436 620 C-438.36944002 619.50055921 -440.72522766 618.95807885 -443.08203125 618.40234375 C-444.99961328 617.93156426 -444.99961328 617.93156426 -447 618 C-447.0825 617.38125 -447.165 616.7625 -447.25 616.125 C-447.79278299 613.84645565 -447.79278299 613.84645565 -449.875 612.9375 C-450.57625 612.628125 -451.2775 612.31875 -452 612 C-452.515625 611.46375 -453.03125 610.9275 -453.5625 610.375 C-455.02978279 608.65438868 -455.02978279 608.65438868 -458 609 C-458.103125 608.401875 -458.20625 607.80375 -458.3125 607.1875 C-459.08876455 604.71756736 -460.07088921 603.67748765 -462 602 C-461.34 601.34 -460.68 600.68 -460 600 C-459.38253906 600.50789062 -458.76507813 601.01578125 -458.12890625 601.5390625 C-449.04253211 608.97267414 -449.04253211 608.97267414 -439 615 C-439.12030284 608.60343869 -439.24497295 602.20697188 -439.37231445 595.81054688 C-439.41492506 593.64650276 -439.45662999 591.48244056 -439.49731445 589.31835938 C-439.71283447 577.88781609 -439.99086063 566.46827999 -440.50390625 555.046875 C-441.12466218 541.17155689 -441.33520642 527.29370868 -441.55224609 513.40722656 C-441.6050023 510.09955781 -441.66178798 506.79197362 -441.71875 503.484375 C-441.73232544 502.52545349 -441.74590088 501.56653198 -441.7598877 500.57855225 C-441.87033396 494.22230332 -442.14505763 487.88438007 -442.47924805 481.53686523 C-443.03016932 471.00308566 -443.34280958 460.46997799 -443.61328125 449.92578125 C-443.66800059 447.86306226 -443.7229294 445.80034881 -443.77804565 443.73764038 C-443.92771938 438.11216758 -444.07442116 432.48662115 -444.2203331 426.86104965 C-444.37732633 420.816599 -444.53605423 414.77219383 -444.69458008 408.7277832 C-444.88332812 401.52914825 -445.07206048 394.33051306 -445.25959438 387.13184637 C-445.71605808 369.61578244 -446.1860455 352.10013157 -446.66792393 334.58474827 C-446.71417052 332.90375335 -446.7604145 331.22275836 -446.80665588 329.54176331 C-446.82966831 328.70520803 -446.85268074 327.86865275 -446.87639052 327.00674731 C-447.18026389 315.94947307 -447.47885342 304.89205527 -447.77696133 293.83462429 C-448.00163803 285.50770045 -448.22866285 277.18085427 -448.46157837 268.85415649 C-449.32418209 237.973061 -450.16729705 207.10266908 -450.17578125 176.20703125 C-450.17703695 175.12584204 -450.17829266 174.04465282 -450.17958641 172.9307003 C-450.18041858 169.95088446 -450.17308669 166.97124532 -450.16137695 163.99145508 C-450.1607683 163.12763781 -450.16015965 162.26382053 -450.15953255 161.37382698 C-450.0948378 152.40147849 -450.0948378 152.40147849 -447.01342773 148.45703125 C-443.15793461 145.31341278 -439.49798623 144.1183629 -434.78515625 142.6875 C-433.4186644 142.25154259 -433.4186644 142.25154259 -432.02456665 141.80677795 C-430.06336092 141.18279559 -428.09994975 140.56571105 -426.13461304 139.9548645 C-421.97189065 138.66102024 -417.81977278 137.33468422 -413.66700745 136.0092926 C-411.54352543 135.33161337 -409.41952798 134.65554717 -407.29502869 133.98106384 C-397.37329835 130.82433845 -387.52562861 127.46923226 -377.6875 124.0625 C-364.30515962 119.44166077 -350.88721211 114.97900687 -337.37304688 110.75512695 C-334.5726847 109.86402405 -331.78730421 108.9311033 -329 108 C-324.94117293 106.6760619 -320.87686308 105.36933061 -316.8125 104.0625 C-315.73935547 103.71509766 -314.66621094 103.36769531 -313.56054688 103.00976562 C-294.85218044 97 -294.85218044 97 -290 97 C-290 96.34 -290 95.68 -290 95 C-287.33402027 94.10208322 -284.66723365 93.20667915 -282 92.3125 C-281.27554688 92.06822266 -280.55109375 91.82394531 -279.8046875 91.57226562 C-274.73330572 89.87464206 -269.63925067 88.25930977 -264.53125 86.67578125 C-256.26915544 84.10975731 -248.05657281 81.40308004 -239.8515625 78.66064453 C-237.47470714 77.86654979 -235.09678024 77.07572481 -232.71875 76.28515625 C-231.17701908 75.77102598 -229.6353501 75.25670989 -228.09375 74.7421875 C-227.3977771 74.51087128 -226.7018042 74.27955505 -225.98474121 74.04122925 C-222.52096292 72.88119226 -219.09172892 71.66567287 -215.6796875 70.3605957 C-212.45010078 69.16642859 -209.90357051 68.54885906 -206.5 68.3125 C-205.6440625 68.24675781 -204.788125 68.18101562 -203.90625 68.11328125 C-203.2771875 68.07589844 -202.648125 68.03851563 -202 68 C-202 67.34 -202 66.68 -202 66 C-201.39639648 65.80889648 -200.79279297 65.61779297 -200.17089844 65.42089844 C-185.51582298 60.78481087 -185.51582298 60.78481087 -170.921875 55.9609375 C-167.95469295 54.98509955 -164.97439491 54.06391162 -161.98828125 53.14819336 C-161.29089844 52.93428955 -160.59351563 52.72038574 -159.875 52.5 C-159.18792969 52.28931885 -158.50085938 52.0786377 -157.79296875 51.86157227 C-153.98668657 50.67669276 -150.29569018 49.36504035 -146.625 47.8125 C-141.87001685 45.81508361 -137.07778008 44.82108784 -132 44 C-132 43.34 -132 42.68 -132 42 C-130.88496094 41.73832031 -129.76992188 41.47664063 -128.62109375 41.20703125 C-123.67290567 39.96916913 -118.88484654 38.3402249 -114.0625 36.6875 C-107.11289772 34.33557748 -100.16004449 32.13786068 -93.10351562 30.13012695 C-84.21059074 27.54874289 -75.45356315 24.52734955 -66.68188477 21.56518555 C-61.35316571 19.76946879 -56.03512014 17.9820389 -50.63671875 16.40625 C-46.8322833 15.28828506 -43.16861284 13.95370648 -39.48095703 12.50048828 C-26.65779022 7.46832849 -13.47241637 4.68734084 0 2 C0 1.34 0 0.68 0 0 Z " transform="translate(892,317)" style="fill: #3E3E3E;"/><path d="M0 0 C0.75925781 0.36738281 1.51851562 0.73476562 2.30078125 1.11328125 C5.05470242 2.42813941 7.85402893 3.55484468 10.6875 4.6875 C14.77737048 6.36912187 18.59763394 8.24638999 22.4375 10.4375 C25.9269839 12.41069018 29.13098954 13.82948114 33 14.875 C37.0215182 15.96835026 39.97644499 17.47602209 43.41796875 19.7890625 C48.46137237 22.99775322 53.83533905 25.66422651 59.12988281 28.43164062 C60.50407971 29.15104028 61.87380164 29.87898255 63.2421875 30.609375 C66.42571346 32.27145682 69.57024851 33.6011598 72.98828125 34.66796875 C77.71051705 36.22045176 82.1470424 38.16386638 86.625 40.3125 C87.43251709 40.69623779 88.24003418 41.07997559 89.07202148 41.4753418 C96.12899227 44.8792285 102.9881587 48.61290378 109.78637695 52.50585938 C114.6211123 55.24293936 119.4645272 57.50004928 124.65771484 59.47949219 C131.56314841 62.14902984 138.1501135 66.04530836 144.4375 69.9375 C148.4827126 72.27946519 152.74731071 73.91588697 157.1171875 75.54296875 C158.88449219 76.20232422 158.88449219 76.20232422 160.6875 76.875 C161.81929687 77.28878906 162.95109375 77.70257813 164.1171875 78.12890625 C166.8125 79.3125 166.8125 79.3125 167.8125 81.3125 C169.48635478 82.06500507 171.16436213 82.81001883 172.86474609 83.50048828 C175.86811809 84.75258345 178.73112079 86.26502655 181.625 87.75 C186.56336922 90.25867051 191.53469875 92.49760066 196.70703125 94.48046875 C199.50051784 95.58438831 202.13928301 96.94618909 204.8125 98.3125 C205.86824219 98.75464844 206.92398438 99.19679688 208.01171875 99.65234375 C211.94171087 101.32412214 215.68274931 103.28249251 219.4375 105.3125 C220.40042969 105.82683594 220.40042969 105.82683594 221.3828125 106.3515625 C224.13450332 107.8289047 226.83429594 109.32597154 229.4921875 110.96875 C231.75953346 112.28182577 233.80802373 113.07173941 236.3125 113.8125 C239.87581409 114.86643797 242.64231603 116.37923752 245.8125 118.3125 C248.37487871 119.64659561 250.96944044 120.9142776 253.5625 122.1875 C258.05577559 124.40943827 262.515215 126.6476783 266.875 129.125 C269.75448892 130.75653031 272.63779501 132.16793525 275.70703125 133.421875 C280.80309672 135.57753906 285.79498794 137.98105455 290.8125 140.3125 C290.8125 140.9725 290.8125 141.6325 290.8125 142.3125 C292.1325 142.3125 293.4525 142.3125 294.8125 142.3125 C294.8125 142.9725 294.8125 143.6325 294.8125 144.3125 C297.4525 144.9725 300.0925 145.6325 302.8125 146.3125 C302.8125 146.9725 302.8125 147.6325 302.8125 148.3125 C303.61945312 148.38339844 304.42640625 148.45429688 305.2578125 148.52734375 C309.88802072 149.55006007 313.56245619 151.59224271 317.6875 153.875 C318.47125 154.29974609 319.255 154.72449219 320.0625 155.16210938 C321.98350387 156.20460538 323.8998249 157.25482445 325.8125 158.3125 C325.45825195 160.21777344 325.45825195 160.21777344 324.8125 162.3125 C319.52449587 165.7492598 313.10825357 167.21872066 307.125 169.0625 C298.49537972 171.76486274 289.95851559 174.5967182 281.53051758 177.87792969 C277.17226855 179.54671879 272.79227908 180.91440144 268.296875 182.171875 C260.18601374 184.44498261 252.22677441 187.11165177 244.25 189.8125 C241.43692019 190.76257241 238.62313916 191.71052816 235.80859375 192.65625 C235.12852768 192.88487732 234.44846161 193.11350464 233.74778748 193.34906006 C228.40160257 195.13688132 223.02283566 196.80389674 217.62866211 198.44140625 C212.77794621 199.94182709 208.00706408 201.66052644 203.22265625 203.359375 C199.89845247 204.28847663 197.24120527 204.50094792 193.8125 204.3125 C193.8125 204.9725 193.8125 205.6325 193.8125 206.3125 C193.00413696 206.56157104 193.00413696 206.56157104 192.17944336 206.81567383 C189.70173469 207.58154003 187.22587503 208.35322761 184.75 209.125 C183.90244141 209.38603516 183.05488281 209.64707031 182.18164062 209.91601562 C177.24114356 211.46111316 172.54958325 213.23123199 167.8125 215.3125 C166.34416464 215.80442961 164.86519865 216.26641634 163.375 216.6875 C158.94409101 217.97649171 154.53017222 219.31332718 150.125 220.6875 C149.44937012 220.89769775 148.77374023 221.10789551 148.07763672 221.32446289 C144.55650957 222.42715133 141.04889672 223.56070219 137.5546875 224.74609375 C136.87365967 224.97699707 136.19263184 225.20790039 135.4909668 225.44580078 C133.60045873 226.09072947 131.7122688 226.7424417 129.82421875 227.39453125 C126.8125 228.3125 126.8125 228.3125 123.8125 228.3125 C123.8125 228.9725 123.8125 229.6325 123.8125 230.3125 C123.11157227 230.47468018 122.41064453 230.63686035 121.68847656 230.80395508 C113.48433083 232.77045419 105.54629777 235.28480122 97.5625 238 C96.24479488 238.44409629 94.92692093 238.88769192 93.60888672 239.33081055 C90.94846997 240.22582617 88.28881894 241.12305626 85.62988281 242.02246094 C73.34303514 246.17734022 61.0516826 250.32996895 48.6875 254.25 C47.48867188 254.63027344 46.28984375 255.01054687 45.0546875 255.40234375 C41.97878391 256.2658203 38.97204795 256.85633426 35.8125 257.3125 C35.8125 257.9725 35.8125 258.6325 35.8125 259.3125 C29.46484375 261.265625 23.1171875 263.21875 16.76953125 265.171875 C15.62049316 265.52572266 14.47145508 265.87957031 13.28759766 266.24414062 C10.98065529 266.95337062 8.67304173 267.66042126 6.36474609 268.36523438 C0.15015652 270.26572048 -6.0311863 272.23213926 -12.1875 274.3125 C-14.68331732 275.14537112 -17.1794193 275.97735893 -19.67578125 276.80859375 C-21.09929923 277.28307562 -22.52280135 277.75760508 -23.94628906 278.23217773 C-27.06664622 279.27231094 -30.18710288 280.31214502 -33.30761719 281.35180664 C-40.52518649 283.75672297 -47.74251871 286.1623003 -54.95666504 288.57746887 C-57.88611668 289.55813974 -60.81590696 290.53779597 -63.74578857 291.5171814 C-65.20573393 292.00532737 -66.66557304 292.49379123 -68.12530518 292.98257446 C-77.16808047 296.00901451 -86.22713602 298.9782892 -95.30859375 301.88671875 C-97.17155845 302.48507949 -99.03451426 303.08346792 -100.89746094 303.68188477 C-104.49830434 304.8381134 -108.10220989 305.98408569 -111.70800781 307.12475586 C-113.34060643 307.6479265 -114.97309911 308.17142787 -116.60546875 308.6953125 C-117.36089462 308.93122604 -118.1163205 309.16713959 -118.89463806 309.41020203 C-120.67844024 309.98712618 -122.43655228 310.64244496 -124.1875 311.3125 C-124.5175 311.9725 -124.8475 312.6325 -125.1875 313.3125 C-130.31627386 311.85735951 -134.40205744 309.55056641 -138.875 306.75 C-143.82239885 303.61568681 -143.82239885 303.61568681 -149.1875 301.3125 C-149.1875 300.6525 -149.1875 299.9925 -149.1875 299.3125 C-149.909375 299.02375 -150.63125 298.735 -151.375 298.4375 C-153.97916667 297.39583333 -156.58333333 296.35416667 -159.1875 295.3125 C-159.1875 294.6525 -159.1875 293.9925 -159.1875 293.3125 C-160.363125 293.003125 -160.363125 293.003125 -161.5625 292.6875 C-168.34720039 290.11399296 -174.2665165 285.91745368 -180.328125 281.97924805 C-186.79936196 277.77734024 -193.33286336 273.87098025 -200.1875 270.3125 C-200.82816406 269.9721875 -201.46882812 269.631875 -202.12890625 269.28125 C-205.00555441 267.74473312 -205.00555441 267.74473312 -208.1875 267.3125 C-209.1775 265.8275 -209.1775 265.8275 -210.1875 264.3125 C-212.40915205 262.88392522 -212.40915205 262.88392522 -215.05078125 261.56640625 C-221.25776177 258.28833518 -227.31753809 254.79536293 -233.375 251.25 C-234.40302734 250.65123047 -235.43105469 250.05246094 -236.49023438 249.43554688 C-241.54383281 246.48357287 -246.55116789 243.48065369 -251.49975586 240.35620117 C-253.74081077 238.97033256 -256.04367156 237.72681989 -258.375 236.5 C-262.60169445 234.22859079 -266.68266582 231.79567269 -270.75 229.25 C-274.49671518 226.91547429 -278.21017811 224.72702934 -282.1875 222.8125 C-287.18345537 220.39872381 -291.81954575 217.51775367 -296.5234375 214.58203125 C-300.77386276 211.93587513 -305.06885283 209.36673213 -309.375 206.8125 C-310.1182251 206.36688721 -310.8614502 205.92127441 -311.62719727 205.4621582 C-315.1645661 203.14034997 -315.1645661 203.14034997 -319.1875 202.3125 C-319.1875 201.6525 -319.1875 200.9925 -319.1875 200.3125 C-320.21810547 199.93351562 -320.21810547 199.93351562 -321.26953125 199.546875 C-324.62445333 198.12765763 -327.73255078 196.3905988 -330.875 194.5625 C-331.49221924 194.20687988 -332.10943848 193.85125977 -332.74536133 193.48486328 C-337.11878917 190.95703449 -341.44600215 188.35687615 -345.765625 185.73828125 C-348.35215848 184.21556396 -350.97890853 182.79148117 -353.625 181.375 C-358.1685182 178.92023808 -362.49691021 176.24000249 -366.83203125 173.4375 C-371.28427491 170.61791845 -375.79446644 167.90006055 -380.3125 165.1875 C-381.5653479 164.43315674 -381.5653479 164.43315674 -382.84350586 163.66357422 C-388.2329513 160.43468813 -393.68478901 157.34336248 -399.1875 154.3125 C-401.21121671 153.17176687 -403.23218409 152.02613872 -405.25 150.875 C-406.08917969 150.39824829 -406.08917969 150.39824829 -406.9453125 149.91186523 C-411.06368447 147.56088959 -415.14383881 145.15086101 -419.21484375 142.71875 C-420.28017334 142.08638428 -421.34550293 141.45401855 -422.44311523 140.80249023 C-424.57875725 139.5337045 -426.70992805 138.25735737 -428.83618164 136.97290039 C-429.8286792 136.38500732 -430.82117676 135.79711426 -431.84375 135.19140625 C-433.17116211 134.39585327 -433.17116211 134.39585327 -434.52539062 133.58422852 C-437.43221664 132.19559529 -440.00195958 131.69493988 -443.1875 131.3125 C-443.1875 129.0025 -443.1875 126.6925 -443.1875 124.3125 C-437.37384953 121.34075807 -432.02841398 118.61681764 -425.5625 117.4375 C-421.95076516 116.75534218 -418.67603948 115.82672446 -415.25 114.5 C-409.4461184 112.28665532 -403.53445997 110.77709628 -397.52539062 109.2434082 C-392.21201388 107.87581035 -386.97363723 106.36446571 -381.75 104.6875 C-374.35938788 102.32086883 -366.91577743 100.37116651 -359.34375 98.67578125 C-352.63257259 97.11525209 -346.33641912 94.98909206 -339.96972656 92.3815918 C-335.35020412 90.54516153 -331.14299546 89.7640007 -326.1875 89.3125 C-326.1875 88.6525 -326.1875 87.9925 -326.1875 87.3125 C-325.33285156 87.17972656 -324.47820312 87.04695313 -323.59765625 86.91015625 C-322.49292969 86.73355469 -321.38820313 86.55695313 -320.25 86.375 C-319.14785156 86.20097656 -318.04570312 86.02695313 -316.91015625 85.84765625 C-314.28323071 85.59404864 -314.28323071 85.59404864 -313.1875 84.3125 C-311.08894982 83.865268 -308.99020658 83.41892717 -306.890625 82.9765625 C-304.05278692 82.27940575 -301.37569473 81.35953828 -298.625 80.375 C-293.13235742 78.48098532 -287.69971339 77.38536241 -281.99682617 76.38916016 C-275.95140781 75.31815311 -269.72621489 74.15263174 -264.234375 71.296875 C-261.89797443 70.17326251 -259.72165701 69.67382179 -257.1875 69.125 C-250.33421325 67.50051722 -243.80249072 65.12537772 -237.21875 62.6496582 C-232.71268029 61.00181747 -229.06841183 59.89118351 -224.1875 60.3125 C-224.1875 59.6525 -224.1875 58.9925 -224.1875 58.3125 C-223.1975 58.13074219 -222.2075 57.94898438 -221.1875 57.76171875 C-219.85409594 57.50818418 -218.52076655 57.25425671 -217.1875 57 C-216.53910156 56.88205078 -215.89070312 56.76410156 -215.22265625 56.64257812 C-211.75067992 55.97224606 -208.53491572 55.12638439 -205.2421875 53.828125 C-201.01386283 52.16640785 -196.75767055 51.2618432 -192.3125 50.375 C-186.34229571 49.12228781 -180.81532523 47.6309069 -175.203125 45.1875 C-170.65569874 43.21342348 -165.98402486 42.25914269 -161.125 41.4375 C-153.75813553 40.15186991 -145.76255375 38.60419359 -139.04296875 35.23828125 C-136.97355343 34.20575192 -135.21800975 33.86280837 -132.9375 33.5 C-128.04619916 32.59067271 -123.3660405 31.23381697 -118.625 29.75 C-117.90989258 29.52787842 -117.19478516 29.30575684 -116.45800781 29.0769043 C-113.05188248 28.19083703 -113.05188248 28.19083703 -110.1875 26.3125 C-108.67050635 26.05915901 -107.14843959 25.83614736 -105.625 25.625 C-99.79593303 24.62942272 -94.56538263 22.73372462 -89.11108398 20.52075195 C-84.95659783 18.86284363 -80.90862473 17.74670688 -76.53076172 16.83984375 C-72.38736285 15.90738474 -68.36303218 14.58083266 -64.3125 13.3125 C-58.00668083 11.3695631 -51.83714793 9.62836108 -45.28125 8.734375 C-43.16248256 8.40865465 -43.16248256 8.40865465 -41.33984375 7.34765625 C-38.38692156 5.92746681 -35.47593083 5.55175942 -32.25 5 C-26.95346276 4.04223978 -22.19321744 2.67833021 -17.1875 0.625 C-10.76207796 -1.96084058 -6.459938 -2.80967 0 0 Z " transform="translate(566.1875,154.6875)" style="fill: #E0E1E1;"/><path d="M0 0 C0.33 0 0.66 0 1 0 C1.05534912 0.95890137 1.11069824 1.91780273 1.16772461 2.90576172 C1.37392741 6.4581134 1.58586911 10.01010329 1.79956055 13.56201172 C1.8913011 15.10033028 1.98147798 16.63874291 2.07006836 18.17724609 C2.19756186 20.38665855 2.33064631 22.59567338 2.46484375 24.8046875 C2.50343002 25.49432587 2.5420163 26.18396423 2.58177185 26.89450073 C2.77807583 30.57031918 2.77807583 30.57031918 4 34 C4.04644588 36.3745458 4.03776858 38.75030033 4 41.125 C3.94370237 46.52445447 4.2368551 51.65798573 5 57 C5 59.33333333 5 61.66666667 5 64 C5.15597656 64.81597656 5.31195313 65.63195312 5.47265625 66.47265625 C6.23512565 71.57272932 6.28894953 76.66262378 6.4375 81.8125 C6.77123814 92.00412759 7.39354104 102.13312634 8.33959961 112.28637695 C8.76962721 117.1013028 9.02755318 121.82172346 8.94921875 126.65625 C8.87994412 136.33255924 9.75833625 145.96531666 10.48156738 155.60839844 C10.84885708 160.5055944 11.20602663 165.40351294 11.56365967 170.30142212 C11.75167888 172.87598246 11.94020294 175.45050599 12.12921143 178.0249939 C13.21512319 192.84685175 14.23345715 207.67325166 15.25 222.5 C15.42671991 225.07186133 15.60347675 227.64372012 15.78027344 230.21557617 C16.18760718 236.1436656 16.59417394 242.07180718 17 248 C16.34 248.33 15.68 248.66 15 249 C12.52416828 220.54788463 10.3891098 192.07849446 8.47787094 163.58356094 C8.31459601 161.15616133 8.14976824 158.72887175 7.98452759 156.30160522 C6.96940892 141.35956799 5.98109214 126.43207392 5.515625 111.4609375 C5.19450397 101.21116968 4.56689113 91.00594708 3.80859375 80.78125 C3.75364557 80.03676479 3.6986974 79.29227959 3.64208412 78.52523422 C3.13306962 71.64535794 2.61314729 64.76633202 2.08129883 57.88818359 C0.59017735 38.54185888 -0.39218672 19.41780632 0 0 Z " transform="translate(122,280)" style="fill: #9C9C9E;"/><path d="M0 0 C6.08747478 3.94068416 11.87867188 8.12493229 17.5625 12.625 C23.37343244 17.18460714 29.2079826 21.70375058 35.125 26.125 C35.77452637 26.61033203 36.42405273 27.09566406 37.09326172 27.59570312 C38.40150162 28.57208888 39.71009447 29.54800191 41.01904297 30.5234375 C44.41208746 33.05253943 47.80045939 35.58786509 51.1875 38.125 C51.84886963 38.6202417 52.51023926 39.1154834 53.19165039 39.62573242 C57.50758362 42.86361722 61.79363547 46.13787052 66.0625 49.4375 C70.31403129 52.721332 74.5944199 55.92633947 79 59 C78.67 59.99 78.34 60.98 78 62 C76.0625 61.625 76.0625 61.625 74 61 C73.67 60.34 73.34 59.68 73 59 C71.11986894 57.87775145 71.11986894 57.87775145 68.9375 56.875 C68.20402344 56.52179687 67.47054687 56.16859375 66.71484375 55.8046875 C65.86599609 55.40636719 65.86599609 55.40636719 65 55 C65 54.34 65 53.68 65 53 C63.68 53 62.36 53 61 53 C58 48.92857143 58 48.92857143 58 46 C55.03 45.505 55.03 45.505 52 45 C52 44.34 52 43.68 52 43 C51.34 43 50.68 43 50 43 C49.67 42.34 49.34 41.68 49 41 C46.51587793 40.17195931 44.64779693 40 42 40 C40 37 40 37 40 33 C39.29875 32.7525 38.5975 32.505 37.875 32.25 C34.60485452 30.82819762 31.858878 29.12753712 29 27 C29 26.34 29 25.68 29 25 C28.46375 24.731875 27.9275 24.46375 27.375 24.1875 C24.58333333 22.79166667 21.79166667 21.39583333 19 20 C19 19.34 19 18.68 19 18 C18.01 18 17.02 18 16 18 C16 17.34 16 16.68 16 16 C15.278125 15.731875 14.55625 15.46375 13.8125 15.1875 C9.68875475 13.44636312 5.88905564 11.49727788 3 8 C3 7.34 3 6.68 3 6 C0.525 5.01 0.525 5.01 -2 4 C-1.34 2.68 -0.68 1.36 0 0 Z " transform="translate(263,789)" style="fill: #434343;"/><path d="M0 0 C0.66 0 1.32 0 2 0 C2 0.66 2 1.32 2 2 C2.57492188 2.2693335 3.14984375 2.53866699 3.7421875 2.81616211 C6.04997638 4.0262041 8.03388502 5.38874373 10.125 6.94140625 C10.9075415 7.52019531 11.69008301 8.09898437 12.49633789 8.6953125 C13.32254639 9.31148437 14.14875488 9.92765625 15 10.5625 C15.85650146 11.19800781 16.71300293 11.83351563 17.59545898 12.48828125 C20.06577635 14.32266841 22.53298195 16.16117977 25 18 C26.09481293 18.81152065 27.18982478 19.62277313 28.28515625 20.43359375 C35.05266886 25.46877543 41.7039914 30.64846285 48.35424805 35.83666992 C55.61182024 41.49252869 62.92048093 47.07861901 70.3984375 52.44140625 C70.95869629 52.84834717 71.51895508 53.25528809 72.09619141 53.67456055 C73.65804204 54.80825107 75.22724221 55.93179635 76.796875 57.0546875 C77.52390625 57.69664062 78.2509375 58.33859375 79 59 C79 59.99 79 60.98 79 62 C77.9171875 61.319375 77.9171875 61.319375 76.8125 60.625 C73.01069821 58.42840341 69.28260131 56.95168918 65 56 C65 55.01 65 54.02 65 53 C63.02 52.505 63.02 52.505 61 52 C61 51.34 61 50.68 61 50 C60.01 49.67 59.02 49.34 58 49 C58 48.34 58 47.68 58 47 C57.29875 46.773125 56.5975 46.54625 55.875 46.3125 C52.25871465 44.66158712 49.91230024 42.7091165 47 40 C47 39.34 47 38.68 47 38 C46.46375 37.938125 45.9275 37.87625 45.375 37.8125 C42.55101135 36.84639862 40.73783865 35.21528341 38.51171875 33.26953125 C35.35027871 30.61457514 31.7021926 28.78253718 28 27 C28 26.34 28 25.68 28 25 C27.34 25 26.68 25 26 25 C25.608125 24.4225 25.21625 23.845 24.8125 23.25 C22.30631543 20.13887433 19.52328186 18.86135646 16 17 C16 16.34 16 15.68 16 15 C13.03 14.505 13.03 14.505 10 14 C9.67 13.01 9.34 12.02 9 11 C7.2516658 9.99632666 5.50107428 8.99569231 3.7265625 8.0390625 C1.48108692 6.68771294 0.20152446 5.32795364 -1 3 C-0.67 2.01 -0.34 1.02 0 0 Z " transform="translate(182,728)" style="fill: #494949;"/><path d="M0 0 C4.55320548 1.48936628 7.90204415 4.07396762 11.5625 7.0625 C12.81161933 8.06359984 14.06163385 9.06358365 15.3125 10.0625 C16.24449219 10.80886719 16.24449219 10.80886719 17.1953125 11.5703125 C19.78044413 13.61827392 22.41745129 15.59278287 25.0625 17.5625 C31.42745712 22.30867308 37.72706 27.13319848 44 32 C45.50626953 33.15822266 45.50626953 33.15822266 47.04296875 34.33984375 C47.95691406 35.05269531 48.87085938 35.76554688 49.8125 36.5 C50.62332031 37.1290625 51.43414062 37.758125 52.26953125 38.40625 C52.84058594 38.9321875 53.41164063 39.458125 54 40 C54 40.66 54 41.32 54 42 C52.68 42 51.36 42 50 42 C50 41.01 50 40.02 50 39 C49.154375 38.95875 48.30875 38.9175 47.4375 38.875 C42.94012528 37.73021371 40.09156641 35.42371818 37 32 C36.505 30.515 36.505 30.515 36 29 C34.3364521 28.32558869 32.66933058 27.6599679 31 27 C30.4225 26.34 29.845 25.68 29.25 25 C26.31640961 22.3923641 23.73389304 22.10298121 19.92578125 21.4921875 C18.97251953 21.24855469 18.97251953 21.24855469 18 21 C17.67 20.34 17.34 19.68 17 19 C18.65 19 20.3 19 22 19 C22 18.34 22 17.68 22 17 C21.32453125 16.82984375 20.6490625 16.6596875 19.953125 16.484375 C10.73656153 13.98045313 10.73656153 13.98045313 8 10 C8 9.01 8 8.02 8 7 C7.01 7 6.02 7 5 7 C0 1.53488372 0 1.53488372 0 0 Z " transform="translate(354,859)" style="fill: #414142;"/><path d="M0 0 C5.55931163 3.58792453 10.87645246 7.36405895 16.0546875 11.484375 C17.65014231 12.72742011 19.31715134 13.87810089 21 15 C23.43717258 14.72965366 23.43717258 14.72965366 26 14 C26.928125 13.814375 27.85625 13.62875 28.8125 13.4375 C29.534375 13.293125 30.25625 13.14875 31 13 C29.33333333 14.66666667 27.66666667 16.33333333 26 18 C27.7634375 17.7525 27.7634375 17.7525 29.5625 17.5 C35.46749861 16.78013268 40.51381026 16.34002922 46 19 C44.375 20.5625 44.375 20.5625 42 22 C38.75 21.6875 38.75 21.6875 36 21 C36 21.66 36 22.32 36 23 C34 23 34 23 32 21 C29.67377689 20.62020847 27.33824592 20.29692012 25 20 C22.63055998 19.50055921 20.27477234 18.95807885 17.91796875 18.40234375 C16.00038672 17.93156426 16.00038672 17.93156426 14 18 C13.9175 17.38125 13.835 16.7625 13.75 16.125 C13.20721701 13.84645565 13.20721701 13.84645565 11.125 12.9375 C10.42375 12.628125 9.7225 12.31875 9 12 C8.484375 11.46375 7.96875 10.9275 7.4375 10.375 C5.97021721 8.65438868 5.97021721 8.65438868 3 9 C2.896875 8.401875 2.79375 7.80375 2.6875 7.1875 C1.91123545 4.71756736 0.92911079 3.67748765 -1 2 C-0.67 1.34 -0.34 0.68 0 0 Z " transform="translate(431,917)" style="fill: #383938;"/><path d="M0 0 C0.33 0 0.66 0 1 0 C1.05534912 0.95890137 1.11069824 1.91780273 1.16772461 2.90576172 C1.37392741 6.4581134 1.58586911 10.01010329 1.79956055 13.56201172 C1.8913011 15.10033028 1.98147798 16.63874291 2.07006836 18.17724609 C2.19756186 20.38665855 2.33064631 22.59567338 2.46484375 24.8046875 C2.50343002 25.49432587 2.5420163 26.18396423 2.58177185 26.89450073 C2.77807583 30.57031918 2.77807583 30.57031918 4 34 C4.04644588 36.3745458 4.03776858 38.75030033 4 41.125 C3.94370237 46.52445447 4.2368551 51.65798573 5 57 C5 59.33333333 5 61.66666667 5 64 C5.15919922 64.93674561 5.31839844 65.87349121 5.48242188 66.83862305 C5.98607995 69.91497607 6.1869855 72.84354513 6.28125 75.95703125 C6.31863281 77.07013672 6.35601562 78.18324219 6.39453125 79.33007812 C6.42933594 80.47927734 6.46414062 81.62847656 6.5 82.8125 C6.72791584 90.26197146 7.05681153 97.60383038 8 105 C7.34 105 6.68 105 6 105 C4.47686709 89.86501981 3.22562184 74.71843349 2.14013672 59.54589844 C1.96413189 57.10905812 1.78383 54.67252415 1.59912109 52.23632812 C0.27708602 34.79391862 -0.25761876 17.49191744 0 0 Z " transform="translate(122,280)" style="fill: #A2A2A4;"/><path d="M0 0 C2 2 2 2 2.4375 4.875 C2 8 2 8 -0.3125 10.375 C-3 12 -3 12 -6 12 C-4.50163895 8.88801935 -2.80066242 5.9465385 -1 3 C-2.4391134 3.28359887 -3.87625518 3.57721399 -5.3125 3.875 C-6.11300781 4.03742187 -6.91351562 4.19984375 -7.73828125 4.3671875 C-10.25301118 4.94478999 -10.25301118 4.94478999 -13 7 C-14.33051681 7.34440369 -15.66449819 7.67546372 -17 8 C-19.25955179 8.8714603 -21.50829927 9.77109659 -23.75 10.6875 C-29.40471529 12.96810381 -35.06316154 15.23805846 -40.75 17.4375 C-41.42901367 17.70844482 -42.10802734 17.97938965 -42.80761719 18.25854492 C-47.65627396 20.11457535 -47.65627396 20.11457535 -51 19 C-50.46221924 18.78907715 -49.92443848 18.5781543 -49.37036133 18.36083984 C-39.6948144 14.55586108 -30.10529968 10.69790511 -20.70703125 6.24609375 C-17.19814123 4.63089041 -13.62890188 3.31960068 -10 2 C-8.948125 1.4121875 -8.948125 1.4121875 -7.875 0.8125 C-5.166843 -0.3610347 -2.91044333 -0.25308203 0 0 Z " transform="translate(882,757)" style="fill: #181818;"/><path d="M0 0 C2 2 2 2 2.20927429 4.04399109 C2.19008438 4.88758682 2.17089447 5.73118256 2.15112305 6.6003418 C2.13413864 7.56223923 2.11715424 8.52413666 2.09965515 9.5151825 C2.07063614 10.56591446 2.04161713 11.61664642 2.01171875 12.69921875 C1.98942703 13.79019363 1.96713531 14.88116852 1.94416809 16.00520325 C1.86869571 19.56627345 1.7784704 23.12679471 1.6875 26.6875 C1.63213954 29.11587017 1.57745257 31.54425578 1.5234375 33.97265625 C1.36375729 40.98217647 1.18368955 47.99107469 1 55 C0.95380913 56.82112302 0.90773652 58.64224904 0.86181641 60.46337891 C0.75082127 64.80923646 0.62862197 69.15462683 0.5 73.5 C0.46479248 74.72936279 0.42958496 75.95872559 0.39331055 77.2253418 C0.35633057 78.3369165 0.31935059 79.44849121 0.28125 80.59375 C0.25095703 81.52896484 0.22066406 82.46417969 0.18945312 83.42773438 C-0.00158995 86.02158724 -0.43409475 88.46373641 -1 91 C-0.01 91.66 0.98 92.32 2 93 C0.87548273 95.9719385 -0.22293791 98.33440687 -2 101 C-2.90953762 97.89602241 -3.13464149 95.10489778 -3.125 91.875 C-3.12757813 91.00617188 -3.13015625 90.13734375 -3.1328125 89.2421875 C-3 87 -3 87 -2 85 C-1.84818542 82.31674187 -1.75439031 79.65586587 -1.70288086 76.97021484 C-1.68322769 76.14086929 -1.66357452 75.31152374 -1.64332581 74.45704651 C-1.57931768 71.70842579 -1.52206334 68.95970724 -1.46484375 66.2109375 C-1.42184707 64.30806554 -1.37843058 62.40520302 -1.33460999 60.50234985 C-1.22027461 55.48828657 -1.1116596 50.47411488 -1.00421143 45.4598999 C-0.8936136 40.34558519 -0.77763933 35.23139276 -0.66210938 30.1171875 C-0.43612628 20.07823771 -0.21618256 10.03916528 0 0 Z " transform="translate(887,667)" style="fill: #4D4D4D;"/><path d="M0 0 C6.90836961 2.02203878 13.05024465 4.90312927 19.375 8.3125 C20.29240967 8.80016846 21.20981934 9.28783691 22.1550293 9.7902832 C24.77441896 11.18551149 27.3883676 12.59031503 30 14 C30.67144043 14.3619043 31.34288086 14.72380859 32.03466797 15.09667969 C35.03191037 16.71533908 38.02161639 18.34689247 41 20 C40.01 20.495 40.01 20.495 39 21 C36.64018187 20.06421005 34.30368736 19.06652192 32 18 C32 17.34 32 16.68 32 16 C29.69 15.67 27.38 15.34 25 15 C24.67 14.01 24.34 13.02 24 12 C22.9790625 11.85691406 22.9790625 11.85691406 21.9375 11.7109375 C18.34830286 10.84227543 15.2584345 9.30991699 12 7.625 C11.09507812 7.16867188 11.09507812 7.16867188 10.171875 6.703125 C6.69683633 4.93538794 3.27362062 3.12041336 0 1 C0 0.67 0 0.34 0 0 Z " transform="translate(638,189)" style="fill: #B2B5B1;"/><path d="M0 0 C-8.44036847 3.40613854 -16.35959859 6.3795237 -25.44140625 7.5625 C-27.891411 7.98143211 -29.76474785 8.62894507 -32 9.6875 C-35.22665775 11.09916277 -35.83234786 11.01719864 -39 10 C-37.42032193 9.32471777 -35.83608097 8.66010306 -34.25 8 C-33.36828125 7.62875 -32.4865625 7.2575 -31.578125 6.875 C-29 6 -29 6 -25 6 C-25 5.34 -25 4.68 -25 4 C-24.07316406 3.79503906 -23.14632812 3.59007812 -22.19140625 3.37890625 C-20.99386719 3.10949219 -19.79632812 2.84007812 -18.5625 2.5625 C-16.77005859 2.16224609 -16.77005859 2.16224609 -14.94140625 1.75390625 C-12.1295314 1.29933252 -12.1295314 1.29933252 -11 0 C-6.97279717 -0.75984959 -3.92759816 -1.16180608 0 0 Z " transform="translate(555,154)" style="fill: #ABAFA9;"/><path d="M0 0 C4.77372777 0.50769335 7.73440053 1.80946647 11.6875 4.5 C14.52265784 6.4136335 16.74978474 7.91659491 20 9 C20 9.66 20 10.32 20 11 C14.77508137 11.65311483 12.08573984 10.14321893 7.9296875 7.2890625 C6.01692903 5.94445182 6.01692903 5.94445182 3.8359375 4.96875 C1.48969079 3.73073046 0.96637734 2.41594334 0 0 Z " transform="translate(307,388)" style="fill: #E6E6E9;"/><path d="M0 0 C-4.46867704 2.14124108 -7.98937728 3.21196502 -12.9765625 3.69921875 C-16.52056291 4.22602962 -19.69808576 5.65477568 -23 7 C-24.91152311 7.76301409 -26.82847967 8.51252407 -28.75 9.25 C-29.65234375 9.60578125 -30.5546875 9.9615625 -31.484375 10.328125 C-34.14785728 11.03948983 -35.44490504 10.93129629 -38 10 C-34.2088675 7.4560438 -30.89835374 6.34207637 -26.4375 5.4375 C-22.59546948 4.65132728 -19.46888781 3.78596204 -16 2 C-14.0146858 1.38768163 -12.01257001 0.82822106 -10 0.3125 C-8.96875 0.04050781 -7.9375 -0.23148438 -6.875 -0.51171875 C-4.11053448 -0.98122716 -2.60249272 -0.93214283 0 0 Z " transform="translate(471,178)" style="fill: #A2A8A0;"/><path d="M0 0 C1.42892578 0.00773438 1.42892578 0.00773438 2.88671875 0.015625 C4.30404297 0.00789062 4.30404297 0.00789062 5.75 0 C8.70031364 0.27748455 10.89341019 1.03508992 13.57421875 2.265625 C11.94921875 3.828125 11.94921875 3.828125 9.57421875 5.265625 C6.32421875 4.953125 6.32421875 4.953125 3.57421875 4.265625 C3.57421875 4.925625 3.57421875 5.585625 3.57421875 6.265625 C2.91421875 6.265625 2.25421875 6.265625 1.57421875 6.265625 C1.24421875 5.605625 0.91421875 4.945625 0.57421875 4.265625 C-1.06941259 3.54403076 -2.73628511 2.87211079 -4.42578125 2.265625 C-2.42578125 0.265625 -2.42578125 0.265625 0 0 Z " transform="translate(463.42578125,933.734375)" style="fill: #2B2B2A;"/><path d="M0 0 C7.76406151 4.17241888 15.40836142 8.52186066 23 13 C22.01 13.33 21.02 13.66 20 14 C18.30963442 13.04060332 16.64605826 12.03357147 15 11 C13.948125 10.67 12.89625 10.34 11.8125 10 C9 9 9 9 7 6 C4.69855891 4.92863949 2.3659787 3.92010283 0 3 C0 2.01 0 1.02 0 0 Z " transform="translate(283,373)" style="fill: #F0F0F3;"/><path d="M0 0 C-3.21451269 1.60725635 -6.43612536 1.05748185 -10 1 C-10 1.66 -10 2.32 -10 3 C-16.05473373 5.57886807 -21.44074057 6.61020794 -28 7 C-24.73262697 3.73262697 -21.16831802 3.04327104 -16.625 2.875 C-15.75875 2.91625 -14.8925 2.9575 -14 3 C-14 2.34 -14 1.68 -14 1 C-12.41913952 0.63495397 -10.83516093 0.28339494 -9.25 -0.0625 C-7.92742187 -0.35833984 -7.92742187 -0.35833984 -6.578125 -0.66015625 C-4.01320972 -0.99825872 -2.42908361 -0.81158635 0 0 Z " transform="translate(356,212)" style="fill: #B6BAB3;"/><path d="M0 0 C0.66 0.33 1.32 0.66 2 1 C-3.41817104 4.4021074 -9.01455264 6.6387421 -15.01171875 8.8515625 C-17.90608363 9.90586573 -17.90608363 9.90586573 -20.19140625 11.109375 C-22.71039066 12.3498252 -25.23638144 12.62314292 -28 13 C-26.00545183 11.00545183 -24.68706792 10.28007079 -22.1484375 9.16015625 C-20.99408203 8.6487207 -20.99408203 8.6487207 -19.81640625 8.12695312 C-19.01074219 7.77568359 -18.20507812 7.42441406 -17.375 7.0625 C-16.59253906 6.71509766 -15.81007813 6.36769531 -15.00390625 6.00976562 C-10.06106633 3.83344059 -5.12374776 1.71357127 0 0 Z " transform="translate(588,876)" style="fill: #151617;"/><path d="M0 0 C2.75 -0.25 2.75 -0.25 6 0 C8.375 2 8.375 2 10 4 C8.6875 5.5 8.6875 5.5 7 7 C4 7 4 7 1.8125 5.1875 C0 3 0 3 0 0 Z " transform="translate(303,823)" style="fill: #494948;"/><path d="M0 0 C-3.69179691 3.33832699 -7.82286303 4.40800315 -12.5 5.75 C-13.25925781 5.98332031 -14.01851563 6.21664062 -14.80078125 6.45703125 C-15.53683594 6.67230469 -16.27289063 6.88757813 -17.03125 7.109375 C-17.69705078 7.30499023 -18.36285156 7.50060547 -19.04882812 7.70214844 C-21.30191658 8.04608837 -22.84415882 7.68376457 -25 7 C-24.19175781 6.74605469 -23.38351562 6.49210938 -22.55078125 6.23046875 C-21.48214844 5.88628906 -20.41351563 5.54210937 -19.3125 5.1875 C-18.25675781 4.85105469 -17.20101563 4.51460937 -16.11328125 4.16796875 C-12.98945189 3.1109668 -12.98945189 3.1109668 -10.375 1.375 C-6.76888855 -0.71274873 -4.0989128 -0.2084193 0 0 Z " transform="translate(429,189)" style="fill: #A6AAA3;"/><path d="M0 0 C3.07318472 1.15244427 5.96925076 2.48494008 8.875 4 C12.48464007 5.84234938 16.08886008 6.92635375 20 8 C20.99 8.66 21.98 9.32 23 10 C18.22652894 9.39062072 13.60202466 8.50684575 8.91796875 7.40234375 C7.00038672 6.93156426 7.00038672 6.93156426 5 7 C4.87625 6.071875 4.87625 6.071875 4.75 5.125 C4.18741541 2.81562433 4.18741541 2.81562433 1.9375 1.75 C1.298125 1.5025 0.65875 1.255 0 1 C0 0.67 0 0.34 0 0 Z " transform="translate(440,928)" style="fill: #3E403D;"/><path d="M0 0 C2.0625 0.4375 2.0625 0.4375 4 1 C3.01 2.32 2.02 3.64 1 5 C1.33 5.66 1.66 6.32 2 7 C1.34 7 0.68 7 0 7 C0 14.92 0 22.84 0 31 C-0.33 31 -0.66 31 -1 31 C-1.02465622 26.74585377 -1.04283899 22.49174502 -1.05493164 18.23754883 C-1.05997101 16.78929927 -1.06680253 15.34105483 -1.07543945 13.89282227 C-1.08752247 11.81525412 -1.09323211 9.73775303 -1.09765625 7.66015625 C-1.10289307 6.40855713 -1.10812988 5.15695801 -1.11352539 3.86743164 C-1 1 -1 1 0 0 Z " transform="translate(442,465)" style="fill: #666769;"/><path d="M0 0 C0.99 0.33 1.98 0.66 3 1 C3 1.66 3 2.32 3 3 C4.1446875 3.37125 4.1446875 3.37125 5.3125 3.75 C8.2364045 5.10995558 9.30004356 6.31585826 11 9 C10.01 10.485 10.01 10.485 9 12 C8.01 11.67 7.02 11.34 6 11 C5.67 9.35 5.34 7.7 5 6 C4.34 6 3.68 6 3 6 C2.01 4.02 1.02 2.04 0 0 Z " transform="translate(409,900)" style="fill: #454545;"/><path d="M0 0 C0.66 0.33 1.32 0.66 2 1 C2.3125 3.75 2.3125 3.75 2 7 C-0.3125 9.375 -0.3125 9.375 -3 11 C-3.99 11 -4.98 11 -6 11 C-4.18690997 7.22272911 -2.0926741 3.62730178 0 0 Z " transform="translate(882,758)" style="fill: #242526;"/><path d="M0 0 C7.244298 2.13766171 13.46718285 5.22684019 20 9 C17.5332355 9.88336837 16.36140628 10.1312406 13.859375 9.22265625 C13.16328125 8.83980469 12.4671875 8.45695313 11.75 8.0625 C11.04359375 7.68222656 10.3371875 7.30195313 9.609375 6.91015625 C9.07828125 6.60980469 8.5471875 6.30945313 8 6 C8 5.34 8 4.68 8 4 C7.236875 3.855625 6.47375 3.71125 5.6875 3.5625 C3 3 3 3 0 2 C0 1.34 0 0.68 0 0 Z " transform="translate(574,159)" style="fill: #C4C6C2;"/><path d="M0 0 C-2.97599332 1.98399555 -5.01317144 2.64507944 -8.4375 3.5 C-11.17515303 4.18534443 -13.62470759 4.80996122 -16.14453125 6.0859375 C-18.77679159 7.38267207 -21.11350761 7.1312042 -24 7 C-20.13316144 4.93567212 -16.08390636 3.38465598 -12 1.8125 C-11.2884375 1.52697266 -10.576875 1.24144531 -9.84375 0.94726562 C-6.10111813 -0.48764268 -3.82213011 -1.23722436 0 0 Z " transform="translate(648,399)" style="fill: #6A6A6E;"/><path d="M0 0 C1.48285242 0.95262034 2.96118201 1.91228405 4.4375 2.875 C5.67306641 3.67550781 5.67306641 3.67550781 6.93359375 4.4921875 C9 6 9 6 10 8 C7.69 8.33 5.38 8.66 3 9 C2.896875 8.401875 2.79375 7.80375 2.6875 7.1875 C1.91123545 4.71756736 0.92911079 3.67748765 -1 2 C-0.67 1.34 -0.34 0.68 0 0 Z " transform="translate(431,917)" style="fill: #3E3E3D;"/><path d="M0 0 C13.90449438 4.35674157 13.90449438 4.35674157 17 9 C14.03 8.01 11.06 7.02 8 6 C8 5.34 8 4.68 8 4 C6.8553125 4.12375 6.8553125 4.12375 5.6875 4.25 C3 4 3 4 1.1875 2 C0.5996875 1.01 0.5996875 1.01 0 0 Z " transform="translate(596,169)" style="fill: #B7B8B5;"/><path d="M0 0 C3.78091617 1.34313185 6.65651916 3.02964684 9.8125 5.5 C10.60269531 6.1084375 11.39289063 6.716875 12.20703125 7.34375 C12.79871094 7.8903125 13.39039063 8.436875 14 9 C14 9.66 14 10.32 14 11 C12.68 11 11.36 11 10 11 C10 10.01 10 9.02 10 8 C9.01 8 8.02 8 7 8 C4.8125 6.125 4.8125 6.125 3 4 C3 3.34 3 2.68 3 2 C2.01 2 1.02 2 0 2 C0 1.34 0 0.68 0 0 Z " transform="translate(394,890)" style="fill: #3D3D3E;"/><path d="M0 0 C2.64 0.33 5.28 0.66 8 1 C8 2.32 8 3.64 8 5 C8.556875 5.103125 9.11375 5.20625 9.6875 5.3125 C12.44176578 6.13133577 14.58727657 7.45853781 17 9 C11.2247859 9 5.62564375 5.43211473 1.375 1.6875 C0.92125 1.130625 0.4675 0.57375 0 0 Z " transform="translate(275,371)" style="fill: #D3D3D6;"/><path d="M0 0 C1.60781893 0.7631861 3.21113138 1.53587058 4.8125 2.3125 C5.70582031 2.74175781 6.59914062 3.17101562 7.51953125 3.61328125 C9.78931933 4.88221789 11.29248171 6.06556898 13 8 C5.25 7.125 5.25 7.125 3 6 C3 5.01 3 4.02 3 3 C2.01 3 1.02 3 0 3 C0 2.01 0 1.02 0 0 Z " transform="translate(193,320)" style="fill: #EAE9EE;"/><path d="M0 0 C0 0.66 0 1.32 0 2 C-2.74663704 2.86656998 -5.4964243 3.71851786 -8.25 4.5625 C-9.02730469 4.80935547 -9.80460938 5.05621094 -10.60546875 5.31054688 C-11.35957031 5.53935547 -12.11367188 5.76816406 -12.890625 6.00390625 C-13.58188477 6.21861572 -14.27314453 6.4333252 -14.98535156 6.65454102 C-17.28678704 7.0491764 -18.79616682 6.71084423 -21 6 C-18.25262623 4.99222971 -15.50250048 3.99358554 -12.75 3 C-11.97269531 2.71382813 -11.19539062 2.42765625 -10.39453125 2.1328125 C-9.64042969 1.86210937 -8.88632812 1.59140625 -8.109375 1.3125 C-7.41811523 1.06113281 -6.72685547 0.80976563 -6.01464844 0.55078125 C-4 0 -4 0 0 0 Z " transform="translate(869,325)" style="fill: #848489;"/><path d="M0 0 C3.65316671 1.24976756 4.78065836 1.67098753 7 5 C6.67 5.66 6.34 6.32 6 7 C5.34 7 4.68 7 4 7 C3.67 7.66 3.34 8.32 3 9 C3 8.34 3 7.68 3 7 C2.34 7 1.68 7 1 7 C0.67 4.69 0.34 2.38 0 0 Z " transform="translate(839,287)" style="fill: #CFCFCF;"/><path d="M0 0 C1.98 0 3.96 0 6 0 C2.17993492 4.4567426 -3.44475889 6.51860237 -9 8 C-9.99 7.67 -10.98 7.34 -12 7 C-11.21753906 6.66226563 -10.43507813 6.32453125 -9.62890625 5.9765625 C-8.61699219 5.53054688 -7.60507812 5.08453125 -6.5625 4.625 C-5.55316406 4.18414063 -4.54382813 3.74328125 -3.50390625 3.2890625 C-0.87856453 2.24923714 -0.87856453 2.24923714 0 0 Z " transform="translate(808,784)" style="fill: #181819;"/><path d="M0 0 C0 0.66 0 1.32 0 2 C-1.95603851 2.52938657 -3.91492289 3.04826801 -5.875 3.5625 C-6.96554687 3.85253906 -8.05609375 4.14257812 -9.1796875 4.44140625 C-12 5 -12 5 -14 4 C-9.22642128 1.28608722 -5.65611463 -0.56561146 0 0 Z " transform="translate(882,757)" style="fill: #1D1D1F;"/><path d="M0 0 C1.43861294 0.08746284 2.87597508 0.19565348 4.3125 0.3125 C5.11300781 0.37050781 5.91351563 0.42851562 6.73828125 0.48828125 C9.41109031 1.09301007 10.38866591 1.80462248 12 4 C12 4.99 12 5.98 12 7 C7.39104317 5.68315519 3.85859765 3.84801255 0 1 C0 0.67 0 0.34 0 0 Z " transform="translate(256,360)" style="fill: #D7D7DA;"/><path d="M0 0 C6.41424802 0.49340369 6.41424802 0.49340369 9.3125 3 C10.1478125 3.99 10.1478125 3.99 11 5 C11.66 5.33 12.32 5.66 13 6 C13 6.66 13 7.32 13 8 C7.73691968 6.58795406 4.2437012 4.31008693 0 1 C0 0.67 0 0.34 0 0 Z " transform="translate(200,327)" style="fill: #D5D5D9;"/><path d="M0 0 C4.10958767 1.45044271 7.43258745 3.51110752 11 6 C7.15510125 7.28163292 5.62830387 6.69835501 2 5 C0.625 2.375 0.625 2.375 0 0 Z " transform="translate(331,401)" style="fill: #ECECEE;"/><path d="M0 0 C3.375 -0.125 3.375 -0.125 7 0 C9 2 9 2 9 5 C9.99 5 10.98 5 12 5 C12 5.66 12 6.32 12 7 C7.69235185 5.43358249 3.93828536 3.31663844 0 1 C0 0.67 0 0.34 0 0 Z " transform="translate(184,318)" style="fill: #D6D6D9;"/><path d="M0 0 C3.99500618 1.3697164 6.80009492 3.25722422 10 6 C2.25 5.125 2.25 5.125 0 4 C0 2.68 0 1.36 0 0 Z " transform="translate(148,294)" style="fill: #E9E9ED;"/><path d="M0 0 C-2.85478326 1.90318884 -4.41941308 2.4619099 -7.6875 3.125 C-8.49574219 3.29257812 -9.30398438 3.46015625 -10.13671875 3.6328125 C-10.75160156 3.75398438 -11.36648438 3.87515625 -12 4 C-12 3.34 -12 2.68 -12 2 C-7.86180432 -1.38579646 -5.08886459 -1.09759825 0 0 Z " transform="translate(827,338)" style="fill: #C7C7CC;"/><path d="M0 0 C5.17930997 1.24303439 8.70166639 2.85487785 13 6 C11.125 6.625 11.125 6.625 9 7 C8.34 6.34 7.68 5.68 7 5 C6.175 4.87625 5.35 4.7525 4.5 4.625 C2 4 2 4 0.6875 1.9375 C0.460625 1.298125 0.23375 0.65875 0 0 Z " transform="translate(413,450)" style="fill: #EDEDF1;"/><path d="M0 0 C0.99 0.33 1.98 0.66 3 1 C2.6875 2.875 2.6875 2.875 2 5 C-1 7 -1 7 -4 7 C-2.79618552 4.50638429 -1.54571278 2.31856917 0 0 Z " transform="translate(889,312)" style="fill: #CAC8D2;"/><path d="M0 0 C5 2 5 2 10 4 C9.67 4.66 9.34 5.32 9 6 C7.02 6 5.04 6 3 6 C2.01 4.02 1.02 2.04 0 0 Z " transform="translate(871,303)" style="fill: #CACACA;"/><path d="M0 0 C-0.66 1.65 -1.32 3.3 -2 5 C-2.33 4.34 -2.66 3.68 -3 3 C-7.455 3.495 -7.455 3.495 -12 4 C-8.54145481 0.54145481 -4.78095787 0 0 0 Z " transform="translate(536,435)" style="fill: #737377;"/><path d="M0 0 C4.49797113 1.68673918 8.72886302 3.81673892 13 6 C13 6.66 13 7.32 13 8 C10.69 7.34 8.38 6.68 6 6 C6 5.34 6 4.68 6 4 C5.195625 3.71125 4.39125 3.4225 3.5625 3.125 C1 2 1 2 0 0 Z " transform="translate(207,329)" style="fill: #F1F1F5;"/><path d="M0 0 C-3.14573677 2.09715785 -5.01456251 2.52004559 -8.6875 3.125 C-10.17830078 3.37636719 -10.17830078 3.37636719 -11.69921875 3.6328125 C-12.45847656 3.75398437 -13.21773438 3.87515625 -14 4 C-10.36515075 -1.28705346 -5.79646176 -0.3982302 0 0 Z " transform="translate(383,203)" style="fill: #9BA299;"/><path d="M0 0 C0.99 0.33 1.98 0.66 3 1 C2.360625 1.28875 1.72125 1.5775 1.0625 1.875 C-1.15206079 2.82823451 -1.15206079 2.82823451 -2 5 C-4.9375 4.625 -4.9375 4.625 -8 4 C-8.33 3.34 -8.66 2.68 -9 2 C-7.6078125 2.061875 -7.6078125 2.061875 -6.1875 2.125 C-2.84190281 2.27136339 -2.84190281 2.27136339 0 0 Z " transform="translate(459,930)" style="fill: #1E201F;"/><path d="M0 0 C5.99291003 0.41330414 9.25036599 1.31903365 14 5 C13.01 5.33 12.02 5.66 11 6 C9.30963442 5.04060332 7.64605826 4.03357147 6 3 C4.01548229 2.28856912 2.01797888 1.61008664 0 1 C0 0.67 0 0.34 0 0 Z " transform="translate(292,381)" style="fill: #E9E8EC;"/><path d="M0 0 C6.75 2.875 6.75 2.875 9 4 C9 4.66 9 5.32 9 6 C5.21213403 5.4739075 2.82847776 4.61896089 0 2 C0 1.34 0 0.68 0 0 Z " transform="translate(254,356)" style="fill: #F0F0F3;"/><path d="M0 0 C3.69900008 0.88776002 7.34550461 1.94581864 11 3 C10.67 3.99 10.34 4.98 10 6 C6.51329166 4.8905928 3.22515763 3.73662334 0 2 C0 1.34 0 0.68 0 0 Z " transform="translate(417,454)" style="fill: #D6D6DA;"/><path d="M0 0 C5.75 1.625 5.75 1.625 8 5 C5.69 4.67 3.38 4.34 1 4 C0.67 2.68 0.34 1.36 0 0 Z " transform="translate(385,433)" style="fill: #E9E9EC;"/><path d="M0 0 C0.33 0.66 0.66 1.32 1 2 C1.66 2.33 2.32 2.66 3 3 C1.21089097 3.52955234 -0.58139148 4.0483937 -2.375 4.5625 C-3.87160156 4.99755859 -3.87160156 4.99755859 -5.3984375 5.44140625 C-8 6 -8 6 -10 5 C-6.27034861 2.96564469 -4.33094958 2 0 2 C0 1.34 0 0.68 0 0 Z " transform="translate(173,260)" style="fill: #929A91;"/><path d="M0 0 C0.90105469 0.02707031 1.80210937 0.05414063 2.73046875 0.08203125 C3.76107422 0.13423828 3.76107422 0.13423828 4.8125 0.1875 C1.21198847 2.58784102 -2.14894535 4.50937705 -6.5625 3.8125 C-7.09875 3.60625 -7.635 3.4 -8.1875 3.1875 C-5.67753317 0.01043235 -3.96125134 -0.15433447 0 0 Z " transform="translate(314.1875,220.8125)" style="fill: #9BA199;"/><path d="M0 0 C0.99 0.66 1.98 1.32 3 2 C-1.95 3.485 -1.95 3.485 -7 5 C-6.67 4.01 -6.34 3.02 -6 2 C-3.125 0.6875 -3.125 0.6875 0 0 Z " transform="translate(517,438)" style="fill: #D5D4DB;"/><path d="M0 0 C3.0831351 1.19899698 6.06279492 2.47700477 9 4 C9 4.66 9 5.32 9 6 C5.59687262 4.94124926 2.98646769 3.99097846 0 2 C0 1.34 0 0.68 0 0 Z " transform="translate(221,337)" style="fill: #F0EFF3;"/><path d="M0 0 C1.44096586 0.42594588 2.87768712 0.86626633 4.3125 1.3125 C5.11300781 1.55613281 5.91351562 1.79976562 6.73828125 2.05078125 C9.09964573 3.04182023 10.33879993 4.08074943 12 6 C7.24518354 5.42365861 4.02951788 3.44931479 0 1 C0 0.67 0 0.34 0 0 Z " transform="translate(638,189)" style="fill: #A6A9A4;"/><path d="M0 0 C-3.64116773 3.33773709 -7.28607242 3.97864902 -12 5 C-12 4.34 -12 3.68 -12 3 C-4.71428571 -0.42857143 -4.71428571 -0.42857143 0 0 Z " transform="translate(534,900)" style="fill: #1B1B1C;"/><path d="M0 0 C-0.33 0.99 -0.66 1.98 -1 3 C-3.97 3 -6.94 3 -10 3 C-6.84916414 -0.15083586 -4.41812253 0 0 0 Z " transform="translate(734,370)" style="fill: #6A6A6E;"/><path d="M0 0 C0.66 0 1.32 0 2 0 C2.66 0.99 3.32 1.98 4 3 C6.05003955 4.19232613 6.05003955 4.19232613 8 5 C6.25 5.6875 6.25 5.6875 4 6 C1.75 4.75 1.75 4.75 0 3 C0 2.01 0 1.02 0 0 Z " transform="translate(124,279)" style="fill: #EEEEF3;"/><path d="M0 0 C-2.27795022 2.27795022 -3.93787293 3.05219877 -7 4 C-9.3125 3.625 -9.3125 3.625 -11 3 C-7.48550811 -0.37391222 -4.73940561 -0.27342725 0 0 Z " transform="translate(444,185)" style="fill: #ACB1A9;"/><path d="M0 0 C3.91402949 1.26941497 5.79072873 2.51167694 8 6 C7.01 6.33 6.02 6.66 5 7 C4.87625 6.071875 4.87625 6.071875 4.75 5.125 C4.18741541 2.81562433 4.18741541 2.81562433 1.9375 1.75 C1.298125 1.5025 0.65875 1.255 0 1 C0 0.67 0 0.34 0 0 Z " transform="translate(440,928)" style="fill: #474847;"/><path d="M0 0 C2.64 0.33 5.28 0.66 8 1 C8 1.99 8 2.98 8 4 C4.79604584 4 2.90600261 3.25664978 0 2 C0 1.34 0 0.68 0 0 Z " transform="translate(407,448)" style="fill: #D8D9DB;"/><path d="M0 0 C2.31 0 4.62 0 7 0 C7.33 0.66 7.66 1.32 8 2 C7.67 2.66 7.34 3.32 7 4 C5.68 4 4.36 4 3 4 C3 3.34 3 2.68 3 2 C2.01 1.67 1.02 1.34 0 1 C0 0.67 0 0.34 0 0 Z " transform="translate(244,353)" style="fill: #D8D8DA;"/><path d="M0 0 C3.77545388 1.09068668 6.47043472 1.9083091 9 5 C3.48387097 4.38709677 3.48387097 4.38709677 1.125 2.5 C0 1 0 1 0 0 Z " transform="translate(236,346)" style="fill: #EEEFF3;"/><path d="M0 0 C3.82097239 0.53069061 6.06171403 1.49701566 9 4 C8.34 4.66 7.68 5.32 7 6 C7 5.34 7 4.68 7 4 C5.35 3.67 3.7 3.34 2 3 C2 2.34 2 1.68 2 1 C1.34 0.67 0.68 0.34 0 0 Z " transform="translate(181,314)" style="fill: #EEEDF3;"/><path d="M0 0 C2.31 0.33 4.62 0.66 7 1 C7.33 2.32 7.66 3.64 8 5 C4.62496331 3.8141763 2.35277269 2.72426311 0 0 Z " transform="translate(152,299)" style="fill: #D8D8DA;"/><path d="M0 0 C4.875 4.75 4.875 4.75 6 7 C4.02 7 2.04 7 0 7 C0 4.69 0 2.38 0 0 Z " transform="translate(123,279)" style="fill: #C1C2C4;"/><path d="M0 0 C1.31602523 0.61754259 2.62773556 1.24428742 3.9375 1.875 C4.66839844 2.22304688 5.39929688 2.57109375 6.15234375 2.9296875 C8 4 8 4 9 6 C5.51669784 5.35494404 2.90567134 4.01782732 0 2 C0 1.34 0 0.68 0 0 Z " transform="translate(374,426)" style="fill: #F3F3F6;"/><path d="M0 0 C2.97 0.33 5.94 0.66 9 1 C8.67 1.99 8.34 2.98 8 4 C5.07120629 3.37240135 2.63904371 2.41377341 0 1 C0 0.67 0 0.34 0 0 Z " transform="translate(780,257)" style="fill: #8A9089;"/><path d="M0 0 C0 0.66 0 1.32 0 2 C-2.64 2.66 -5.28 3.32 -8 4 C-7.67 3.01 -7.34 2.02 -7 1 C-4 0 -4 0 0 0 Z " transform="translate(190,257)" style="fill: #8F968C;"/></svg>